<svg width="218" height="42" viewBox="0 0 218 42" fill="none" xmlns="http://www.w3.org/2000/svg">
<g clip-path="url(#clip0)">
<path d="M25.653 0.958C23.8159 0.34778 21.8956 0.0246458 19.96 0C18.0117 0.0483452 16.0814 0.385344 14.232 1L13.8 13.696H26.084L25.653 0.958Z" fill="#EE832B"/>
<path d="M28.454 3.37101L27.161 13.696H32.333C32.4851 13.664 32.6424 13.6654 32.7939 13.7001C32.9454 13.7348 33.0876 13.8021 33.2106 13.8972C33.3336 13.9923 33.4344 14.113 33.5061 14.2509C33.5779 14.3888 33.6187 14.5407 33.626 14.696L32.2 23.286C32.2052 23.6417 32.0742 23.9859 31.8338 24.2481C31.5934 24.5102 31.2618 24.6705 30.907 24.696H9.08499C8.7098 24.652 8.36264 24.4755 8.10598 24.1983C7.84933 23.9212 7.70004 23.5615 7.68499 23.184L6.25799 14.797C6.27469 14.6316 6.32458 14.4713 6.40467 14.3257C6.48476 14.18 6.5934 14.052 6.7241 13.9493C6.8548 13.8466 7.00487 13.7714 7.16533 13.728C7.32579 13.6847 7.49335 13.6741 7.65799 13.697H12.722L11.43 3.36501C7.99034 5.02691 5.09148 7.62865 3.06875 10.8693C1.04601 14.1099 -0.0179331 17.857 -1.36779e-05 21.677C-0.021896 24.3242 0.478235 26.9497 1.47178 29.4034C2.46532 31.8571 3.9328 34.091 5.79028 35.9772C7.64777 37.8633 9.85883 39.3649 12.297 40.3959C14.7353 41.427 17.3528 41.9673 20 41.986C22.6428 41.969 25.2562 41.4303 27.6902 40.4007C30.1242 39.371 32.3309 37.8708 34.1836 35.9862C36.0363 34.1015 37.4986 31.8695 38.4864 29.4182C39.4742 26.9669 39.9682 24.3447 39.94 21.702C39.9739 17.8691 38.9104 14.1065 36.8752 10.8584C34.84 7.61026 31.9179 5.01224 28.454 3.37101V3.37101ZM26.32 33.032C26.2452 33.2381 26.1055 33.4143 25.9219 33.5341C25.7383 33.6538 25.5207 33.7107 25.302 33.696H22.224C22.0404 34.115 21.7283 34.4648 21.3328 34.6947C20.9373 34.9246 20.479 35.0228 20.024 34.975C19.569 35.0228 19.1107 34.9246 18.7152 34.6947C18.3197 34.4648 18.0076 34.115 17.824 33.696H14.738C14.499 33.7112 14.2607 33.6565 14.0522 33.5386C13.8438 33.4207 13.6741 33.2447 13.564 33.032L13.154 31.601C13.1652 31.3844 13.2485 31.1777 13.3905 31.0138C13.5325 30.8499 13.7252 30.738 13.938 30.696H17.816C17.9996 30.277 18.3117 29.9272 18.7072 29.6973C19.1026 29.4674 19.561 29.3692 20.016 29.417C20.471 29.3692 20.9293 29.4674 21.3248 29.6973C21.7203 29.9272 22.0324 30.277 22.216 30.696H26.1C26.2955 30.7472 26.4662 30.8665 26.5816 31.0324C26.6969 31.1983 26.7492 31.4 26.729 31.601L26.32 33.032Z" fill="#EE832B"/>
<path d="M8.68701 17.051L9.48101 21.751C9.47663 21.9846 9.55977 22.2114 9.71409 22.3868C9.86841 22.5622 10.0828 22.6736 10.315 22.699H29.57C29.6714 22.715 29.775 22.7091 29.8739 22.6819C29.9728 22.6547 30.0648 22.6067 30.1437 22.5411C30.2226 22.4755 30.2867 22.3939 30.3316 22.3016C30.3764 22.2093 30.4011 22.1086 30.404 22.006L31.2 16.978C31.2091 16.7046 31.134 16.435 30.9848 16.2057C30.8356 15.9764 30.6196 15.7985 30.366 15.696H9.52101C9.06201 15.696 8.68701 16.589 8.68701 17.051Z" fill="#EE832B"/>
</g>
<path d="M49.752 28.328V12.848C49.752 12.64 49.872 12.472 50.112 12.344C50.368 12.2 50.648 12.128 50.952 12.128C51.288 12.128 51.512 12.224 51.624 12.416L57.288 20.792L62.976 12.416C63.088 12.224 63.288 12.128 63.576 12.128C63.864 12.128 64.144 12.2 64.416 12.344C64.688 12.488 64.824 12.656 64.824 12.848V28.328C64.824 28.536 64.736 28.704 64.56 28.832C64.384 28.944 64.176 29 63.936 29C63.344 29 63.048 28.776 63.048 28.328V15.44L58.68 21.776C58.296 22.336 57.824 22.616 57.264 22.616C56.752 22.616 56.296 22.336 55.896 21.776L51.528 15.44V28.328C51.528 28.536 51.44 28.704 51.264 28.832C51.088 28.944 50.88 29 50.64 29C50.048 29 49.752 28.776 49.752 28.328ZM67.4499 28.112C67.4499 28.048 67.4659 27.968 67.4979 27.872L69.1299 23.552H68.1459C67.7139 23.552 67.4979 23.248 67.4979 22.64C67.4979 22.4 67.5539 22.2 67.6659 22.04C67.7779 21.864 67.9379 21.776 68.1459 21.776H69.8019L73.1379 13.04C73.2659 12.784 73.4419 12.584 73.6659 12.44C73.8899 12.28 74.0899 12.2 74.2659 12.2C74.4419 12.2 74.6419 12.28 74.8659 12.44C75.0899 12.6 75.2579 12.8 75.3699 13.04L78.7059 21.776H80.2659C80.4739 21.776 80.6339 21.864 80.7459 22.04C80.8739 22.216 80.9379 22.424 80.9379 22.664C80.9379 23.256 80.7139 23.552 80.2659 23.552H79.4019L81.0579 27.872C81.0899 27.968 81.1059 28.048 81.1059 28.112C81.1059 28.352 80.9859 28.56 80.7459 28.736C80.5059 28.912 80.2659 29 80.0259 29C79.7699 29 79.5779 28.88 79.4499 28.64L77.5059 23.552H71.0499L69.1059 28.64C68.9779 28.88 68.7859 29 68.5299 29C68.2899 29 68.0499 28.912 67.8099 28.736C67.5699 28.56 67.4499 28.352 67.4499 28.112ZM71.7219 21.776H76.8099L74.2659 15.08L71.7219 21.776ZM83.0181 20.48C83.0181 18.864 83.4581 17.392 84.3381 16.064C85.2181 14.736 86.3541 13.72 87.7461 13.016C89.1381 12.296 90.6101 11.936 92.1621 11.936C93.6021 11.936 94.9381 12.432 96.1701 13.424C96.2981 13.536 96.3621 13.68 96.3621 13.856C96.3621 14.112 96.2581 14.352 96.0501 14.576C95.8421 14.784 95.6261 14.888 95.4021 14.888C95.2421 14.888 95.1061 14.832 94.9941 14.72C94.2261 14.048 93.2661 13.712 92.1141 13.712C90.0021 13.712 88.2581 14.392 86.8821 15.752C85.5061 17.112 84.8181 18.68 84.8181 20.456C84.8181 21.368 84.9141 22.224 85.1061 23.024C85.3141 23.808 85.6341 24.544 86.0661 25.232C86.5141 25.904 87.1381 26.44 87.9381 26.84C88.7541 27.24 89.7061 27.44 90.7941 27.44C92.2501 27.44 93.3621 26.92 94.1301 25.88C94.9141 24.84 95.3221 23.504 95.3541 21.872H90.5301C90.0981 21.872 89.8821 21.568 89.8821 20.96C89.8821 20.72 89.9381 20.52 90.0501 20.36C90.1621 20.184 90.3221 20.096 90.5301 20.096H96.4101C96.6661 20.096 96.8341 20.192 96.9141 20.384C96.9941 20.56 97.0341 20.856 97.0341 21.272C97.0341 23.656 96.5061 25.576 95.4501 27.032C94.4101 28.488 92.9781 29.216 91.1541 29.216C89.7781 29.216 88.5541 28.976 87.4821 28.496C86.4101 28.016 85.5541 27.36 84.9141 26.528C84.2901 25.696 83.8181 24.776 83.4981 23.768C83.1781 22.744 83.0181 21.648 83.0181 20.48ZM99.7911 27.776V13.4C99.7911 12.616 99.9991 12.224 100.415 12.224H112.751C112.959 12.224 113.119 12.312 113.231 12.488C113.359 12.664 113.423 12.872 113.423 13.112C113.423 13.704 113.199 14 112.751 14H101.567V18.704H110.591C110.799 18.704 110.959 18.792 111.071 18.968C111.199 19.144 111.263 19.352 111.263 19.592C111.263 20.184 111.039 20.48 110.591 20.48H101.567V27.224H112.751C112.959 27.224 113.119 27.312 113.231 27.488C113.359 27.664 113.423 27.872 113.423 28.112C113.423 28.704 113.199 29 112.751 29H100.415C100.143 29 99.9671 28.904 99.8871 28.712C99.8231 28.52 99.7911 28.208 99.7911 27.776ZM115.916 28.352V12.872C115.916 12.424 116.212 12.2 116.804 12.2C117.364 12.2 117.644 12.544 117.644 13.232C119.292 12.528 120.884 12.176 122.42 12.176C124.596 12.176 126.196 12.696 127.22 13.736C128.244 14.776 128.756 16.088 128.756 17.672C128.756 19.912 127.596 21.4 125.276 22.136L129.284 27.92C129.38 28.096 129.428 28.248 129.428 28.376C129.428 28.568 129.348 28.72 129.188 28.832C129.044 28.944 128.852 29 128.612 29C128.116 29 127.724 28.8 127.436 28.4L123.452 22.544C122.652 22.656 121.7 22.712 120.596 22.712C120.276 22.712 119.788 22.688 119.132 22.64C118.492 22.592 118.012 22.568 117.692 22.568V28.352C117.692 28.56 117.604 28.72 117.428 28.832C117.268 28.944 117.068 29 116.828 29C116.22 29 115.916 28.784 115.916 28.352ZM117.692 20.504C118.348 20.712 119.668 20.816 121.652 20.816C123.252 20.816 124.54 20.536 125.516 19.976C126.492 19.4 126.98 18.544 126.98 17.408C126.98 16.432 126.588 15.616 125.804 14.96C125.02 14.288 123.812 13.952 122.18 13.952C120.772 13.952 119.276 14.376 117.692 15.224V20.504ZM131.486 20.48C131.486 18.032 132.366 16 134.126 14.384C135.902 12.752 137.99 11.936 140.39 11.936C141.83 11.936 143.166 12.432 144.398 13.424C144.526 13.536 144.59 13.68 144.59 13.856C144.59 14.112 144.486 14.352 144.278 14.576C144.07 14.784 143.854 14.888 143.63 14.888C143.47 14.888 143.334 14.832 143.222 14.72C142.454 14.048 141.494 13.712 140.342 13.712C138.246 13.712 136.542 14.392 135.23 15.752C133.934 17.096 133.286 18.664 133.286 20.456C133.286 22.296 133.926 23.92 135.206 25.328C136.486 26.736 138.206 27.44 140.366 27.44C141.774 27.44 142.918 26.936 143.798 25.928C143.974 25.752 144.126 25.664 144.254 25.664C144.494 25.664 144.726 25.784 144.95 26.024C145.174 26.264 145.286 26.496 145.286 26.72C145.286 26.864 145.23 26.992 145.118 27.104C143.886 28.512 142.342 29.216 140.486 29.216C138.646 29.216 137.03 28.8 135.638 27.968C134.246 27.12 133.206 26.048 132.518 24.752C131.83 23.44 131.486 22.016 131.486 20.48ZM146.675 20.648C146.675 18.2 147.355 16.16 148.715 14.528C150.091 12.896 151.723 12.08 153.611 12.08C155.499 12.08 157.091 12.92 158.387 14.6C159.699 16.264 160.355 18.256 160.355 20.576C160.355 23.136 159.715 25.2 158.435 26.768C157.171 28.32 155.563 29.104 153.611 29.12C151.723 29.12 150.091 28.328 148.715 26.744C147.355 25.16 146.675 23.128 146.675 20.648ZM148.451 20.672C148.451 22.496 148.955 24.064 149.963 25.376C150.987 26.688 152.203 27.344 153.611 27.344C155.003 27.344 156.179 26.688 157.139 25.376C158.099 24.048 158.579 22.464 158.579 20.624C158.579 18.864 158.091 17.296 157.115 15.92C156.155 14.544 154.987 13.856 153.611 13.856C152.203 13.856 150.987 14.552 149.963 15.944C148.955 17.336 148.451 18.912 148.451 20.672ZM163.307 28.328V12.848C163.307 12.416 163.611 12.2 164.219 12.2C164.459 12.2 164.659 12.256 164.819 12.368C164.995 12.48 165.083 12.64 165.083 12.848V13.04C166.219 12.304 167.331 11.936 168.419 11.936C170.819 11.936 172.899 12.752 174.659 14.384C176.435 16 177.323 18.032 177.323 20.48C177.323 22.016 176.979 23.44 176.291 24.752C175.603 26.048 174.563 27.12 173.171 27.968C171.779 28.8 170.163 29.216 168.323 29.216C167.091 29.216 166.011 28.92 165.083 28.328C165.083 28.536 164.995 28.704 164.819 28.832C164.643 28.944 164.435 29 164.195 29C163.603 29 163.307 28.776 163.307 28.328ZM165.083 26.024C165.963 26.968 167.083 27.44 168.443 27.44C170.603 27.44 172.323 26.736 173.603 25.328C174.883 23.92 175.523 22.296 175.523 20.456C175.523 18.664 174.867 17.096 173.555 15.752C172.259 14.392 170.563 13.712 168.467 13.712C167.331 13.712 166.203 14.104 165.083 14.888V26.024ZM180.158 28.328V12.848C180.158 12.416 180.462 12.2 181.07 12.2C181.31 12.2 181.51 12.256 181.67 12.368C181.846 12.48 181.934 12.64 181.934 12.848V28.328C181.934 28.536 181.846 28.704 181.67 28.832C181.494 28.944 181.286 29 181.046 29C180.454 29 180.158 28.776 180.158 28.328ZM185.432 28.328V12.848C185.432 12.416 185.672 12.2 186.152 12.2C186.504 12.2 186.848 12.352 187.184 12.656L197.384 21.632V12.848C197.384 12.416 197.688 12.2 198.296 12.2C198.536 12.2 198.736 12.256 198.896 12.368C199.072 12.48 199.16 12.64 199.16 12.848V28.328C199.16 28.536 199.072 28.704 198.896 28.832C198.72 28.944 198.512 29 198.272 29C197.68 29 197.384 28.776 197.384 28.328V23.96L187.208 15.008V28.328C187.208 28.536 187.12 28.704 186.944 28.832C186.768 28.944 186.56 29 186.32 29C185.728 29 185.432 28.776 185.432 28.328ZM202.01 20.48C202.01 18.864 202.45 17.392 203.33 16.064C204.21 14.736 205.346 13.72 206.738 13.016C208.13 12.296 209.602 11.936 211.154 11.936C212.594 11.936 213.93 12.432 215.162 13.424C215.29 13.536 215.354 13.68 215.354 13.856C215.354 14.112 215.25 14.352 215.042 14.576C214.834 14.784 214.618 14.888 214.394 14.888C214.234 14.888 214.098 14.832 213.986 14.72C213.218 14.048 212.258 13.712 211.106 13.712C208.994 13.712 207.25 14.392 205.874 15.752C204.498 17.112 203.81 18.68 203.81 20.456C203.81 21.368 203.906 22.224 204.098 23.024C204.306 23.808 204.626 24.544 205.058 25.232C205.506 25.904 206.13 26.44 206.93 26.84C207.746 27.24 208.698 27.44 209.786 27.44C211.242 27.44 212.354 26.92 213.122 25.88C213.906 24.84 214.314 23.504 214.346 21.872H209.522C209.09 21.872 208.874 21.568 208.874 20.96C208.874 20.72 208.93 20.52 209.042 20.36C209.154 20.184 209.314 20.096 209.522 20.096H215.402C215.658 20.096 215.826 20.192 215.906 20.384C215.986 20.56 216.026 20.856 216.026 21.272C216.026 23.656 215.498 25.576 214.442 27.032C213.402 28.488 211.97 29.216 210.146 29.216C208.77 29.216 207.546 28.976 206.474 28.496C205.402 28.016 204.546 27.36 203.906 26.528C203.282 25.696 202.81 24.776 202.49 23.768C202.17 22.744 202.01 21.648 202.01 20.48Z" fill="black"/>
<defs>
<clipPath id="clip0">
<rect width="142" height="41.985" fill="white"/>
</clipPath>
</defs>
</svg>
