<svg width="391" height="75" viewBox="0 0 391 75" fill="none" xmlns="http://www.w3.org/2000/svg">
<g clip-path="url(#clip0)">
<path d="M35.7475 1.50597C33.1875 0.546707 30.5116 0.038743 27.8143 0C25.0994 0.0759981 22.4095 0.605757 19.8323 1.57199L19.2303 21.53H36.3481L35.7475 1.50597Z" fill="#EE832B"/>
<path d="M39.6507 5.29918L37.8489 21.53H45.0561C45.2681 21.4796 45.4872 21.4818 45.6984 21.5364C45.9095 21.591 46.1077 21.6967 46.279 21.8462C46.4504 21.9957 46.5909 22.1855 46.6909 22.4023C46.7908 22.6191 46.8478 22.8578 46.8579 23.102L44.8708 36.6054C44.8781 37.1645 44.6955 37.7056 44.3605 38.1177C44.0255 38.5299 43.5634 38.7818 43.069 38.8219H12.66C12.1371 38.7527 11.6534 38.4753 11.2957 38.0395C10.9381 37.6038 10.73 37.0384 10.7091 36.445L8.72053 23.2607C8.74381 23.0008 8.81333 22.7488 8.92493 22.5198C9.03654 22.2909 9.18793 22.0896 9.37006 21.9282C9.55219 21.7668 9.76131 21.6484 9.98492 21.5803C10.2085 21.5121 10.442 21.4956 10.6714 21.5315H17.7281L15.9277 5.28975C11.1346 7.90224 7.095 11.9922 4.27632 17.0864C1.45764 22.1806 -0.024974 28.071 -3.21265e-06 34.076C-0.0304962 38.2373 0.666437 42.3646 2.05094 46.2219C3.43545 50.0791 5.48038 53.5907 8.06879 56.5557C10.6572 59.5208 13.7383 61.8812 17.136 63.502C20.5336 65.1228 24.1812 65.9722 27.87 66.0016C31.5527 65.9749 35.1945 65.128 38.5863 63.5094C41.9781 61.8909 45.0532 59.5326 47.6349 56.5699C50.2167 53.6072 52.2543 50.0985 53.6309 46.2451C55.0074 42.3917 55.6958 38.2696 55.6565 34.1153C55.7037 28.09 54.2218 22.1752 51.3857 17.0692C48.5496 11.9632 44.4777 7.87918 39.6507 5.29918V5.29918ZM36.677 51.926C36.5728 52.2499 36.3781 52.5269 36.1222 52.7152C35.8664 52.9035 35.5632 52.9928 35.2584 52.9698H30.9692C30.7134 53.6285 30.2784 54.1783 29.7273 54.5397C29.1762 54.9012 28.5375 55.0555 27.9035 54.9804C27.2695 55.0555 26.6307 54.9012 26.0796 54.5397C25.5285 54.1783 25.0936 53.6285 24.8378 52.9698H20.5374C20.2044 52.9937 19.8723 52.9077 19.5818 52.7223C19.2913 52.537 19.0549 52.2603 18.9015 51.926L18.3301 49.6765C18.3458 49.336 18.4618 49.0111 18.6597 48.7534C18.8576 48.4957 19.1261 48.3199 19.4226 48.2538H24.8266C25.0824 47.5951 25.5174 47.0453 26.0685 46.6839C26.6196 46.3224 27.2583 46.1681 27.8923 46.2432C28.5263 46.1681 29.1651 46.3224 29.7162 46.6839C30.2673 47.0453 30.7022 47.5951 30.958 48.2538H36.3704C36.6428 48.3343 36.8808 48.5218 37.0415 48.7826C37.2022 49.0434 37.275 49.3604 37.2469 49.6765L36.677 51.926Z" fill="#EE832B"/>
<path d="M12.1054 26.804L13.2118 34.1923C13.2057 34.5596 13.3215 34.9161 13.5366 35.1918C13.7516 35.4676 14.0503 35.6426 14.374 35.6826H41.2059C41.3471 35.7077 41.4915 35.6985 41.6293 35.6557C41.7672 35.6129 41.8953 35.5375 42.0053 35.4344C42.1153 35.3313 42.2045 35.2029 42.2671 35.0579C42.3296 34.9129 42.364 34.7544 42.368 34.5932L43.4773 26.6892C43.4899 26.2595 43.3852 25.8357 43.1773 25.4752C42.9695 25.1148 42.6685 24.8351 42.3151 24.674H13.2675C12.6279 24.674 12.1054 26.0777 12.1054 26.804Z" fill="#EE832B"/>
</g>
<path d="M74.139 48.796V21.061C74.139 20.6883 74.354 20.3873 74.784 20.158C75.2427 19.9 75.7443 19.771 76.289 19.771C76.891 19.771 77.2923 19.943 77.493 20.287L87.641 35.294L97.832 20.287C98.0327 19.943 98.391 19.771 98.907 19.771C99.423 19.771 99.9247 19.9 100.412 20.158C100.899 20.416 101.143 20.717 101.143 21.061V48.796C101.143 49.1687 100.985 49.4697 100.67 49.699C100.355 49.8997 99.982 50 99.552 50C98.4913 50 97.961 49.5987 97.961 48.796V25.705L90.135 37.057C89.447 38.0603 88.6013 38.562 87.598 38.562C86.6807 38.562 85.8637 38.0603 85.147 37.057L77.321 25.705V48.796C77.321 49.1687 77.1633 49.4697 76.848 49.699C76.5327 49.8997 76.16 50 75.73 50C74.6693 50 74.139 49.5987 74.139 48.796ZM105.848 48.409C105.848 48.2943 105.876 48.151 105.934 47.979L108.858 40.239H107.095C106.321 40.239 105.934 39.6943 105.934 38.605C105.934 38.175 106.034 37.8167 106.235 37.53C106.435 37.2147 106.722 37.057 107.095 37.057H110.062L116.039 21.405C116.268 20.9463 116.583 20.588 116.985 20.33C117.386 20.0433 117.744 19.9 118.06 19.9C118.375 19.9 118.733 20.0433 119.135 20.33C119.536 20.6167 119.837 20.975 120.038 21.405L126.015 37.057H128.81C129.182 37.057 129.469 37.2147 129.67 37.53C129.899 37.8453 130.014 38.218 130.014 38.648C130.014 39.7087 129.612 40.239 128.81 40.239H127.262L130.229 47.979C130.286 48.151 130.315 48.2943 130.315 48.409C130.315 48.839 130.1 49.2117 129.67 49.527C129.24 49.8423 128.81 50 128.38 50C127.921 50 127.577 49.785 127.348 49.355L123.865 40.239H112.298L108.815 49.355C108.585 49.785 108.241 50 107.783 50C107.353 50 106.923 49.8423 106.493 49.527C106.063 49.2117 105.848 48.839 105.848 48.409ZM113.502 37.057H122.618L118.06 25.06L113.502 37.057ZM133.741 34.735C133.741 31.8397 134.529 29.2023 136.106 26.823C137.682 24.4437 139.718 22.6233 142.212 21.362C144.706 20.072 147.343 19.427 150.124 19.427C152.704 19.427 155.097 20.3157 157.305 22.093C157.534 22.2937 157.649 22.5517 157.649 22.867C157.649 23.3257 157.462 23.7557 157.09 24.157C156.717 24.5297 156.33 24.716 155.929 24.716C155.642 24.716 155.398 24.6157 155.198 24.415C153.822 23.211 152.102 22.609 150.038 22.609C146.254 22.609 143.129 23.8273 140.664 26.264C138.198 28.7007 136.966 31.51 136.966 34.692C136.966 36.326 137.138 37.8597 137.482 39.293C137.854 40.6977 138.428 42.0163 139.202 43.249C140.004 44.453 141.122 45.4133 142.556 46.13C144.018 46.8467 145.723 47.205 147.673 47.205C150.281 47.205 152.274 46.2733 153.65 44.41C155.054 42.5467 155.785 40.153 155.843 37.229H147.2C146.426 37.229 146.039 36.6843 146.039 35.595C146.039 35.165 146.139 34.8067 146.34 34.52C146.54 34.2047 146.827 34.047 147.2 34.047H157.735C158.193 34.047 158.494 34.219 158.638 34.563C158.781 34.8783 158.853 35.4087 158.853 36.154C158.853 40.4253 157.907 43.8653 156.015 46.474C154.151 49.0827 151.586 50.387 148.318 50.387C145.852 50.387 143.659 49.957 141.739 49.097C139.818 48.237 138.284 47.0617 137.138 45.571C136.02 44.0803 135.174 42.432 134.601 40.626C134.027 38.7913 133.741 36.8277 133.741 34.735ZM163.792 47.807V22.05C163.792 20.6453 164.165 19.943 164.91 19.943H187.012C187.385 19.943 187.672 20.1007 187.872 20.416C188.102 20.7313 188.216 21.104 188.216 21.534C188.216 22.5947 187.815 23.125 187.012 23.125H166.974V31.553H183.142C183.515 31.553 183.802 31.7107 184.002 32.026C184.232 32.3413 184.346 32.714 184.346 33.144C184.346 34.2047 183.945 34.735 183.142 34.735H166.974V46.818H187.012C187.385 46.818 187.672 46.9757 187.872 47.291C188.102 47.6063 188.216 47.979 188.216 48.409C188.216 49.4697 187.815 50 187.012 50H164.91C164.423 50 164.108 49.828 163.964 49.484C163.85 49.14 163.792 48.581 163.792 47.807ZM192.683 48.839V21.104C192.683 20.3013 193.213 19.9 194.274 19.9C195.277 19.9 195.779 20.5163 195.779 21.749C198.732 20.4877 201.584 19.857 204.336 19.857C208.235 19.857 211.101 20.7887 212.936 22.652C214.771 24.5153 215.688 26.866 215.688 29.704C215.688 33.7173 213.61 36.3833 209.453 37.702L216.634 48.065C216.806 48.3803 216.892 48.6527 216.892 48.882C216.892 49.226 216.749 49.4983 216.462 49.699C216.204 49.8997 215.86 50 215.43 50C214.541 50 213.839 49.6417 213.323 48.925L206.185 38.433C204.752 38.6337 203.046 38.734 201.068 38.734C200.495 38.734 199.62 38.691 198.445 38.605C197.298 38.519 196.438 38.476 195.865 38.476V48.839C195.865 49.2117 195.707 49.4983 195.392 49.699C195.105 49.8997 194.747 50 194.317 50C193.228 50 192.683 49.613 192.683 48.839ZM195.865 34.778C197.04 35.1507 199.405 35.337 202.96 35.337C205.827 35.337 208.134 34.8353 209.883 33.832C211.632 32.8 212.506 31.2663 212.506 29.231C212.506 27.4823 211.804 26.0203 210.399 24.845C208.994 23.641 206.83 23.039 203.906 23.039C201.383 23.039 198.703 23.7987 195.865 25.318V34.778ZM220.58 34.735C220.58 30.349 222.156 26.7083 225.31 23.813C228.492 20.889 232.233 19.427 236.533 19.427C239.113 19.427 241.506 20.3157 243.714 22.093C243.943 22.2937 244.058 22.5517 244.058 22.867C244.058 23.3257 243.871 23.7557 243.499 24.157C243.126 24.5297 242.739 24.716 242.338 24.716C242.051 24.716 241.807 24.6157 241.607 24.415C240.231 23.211 238.511 22.609 236.447 22.609C232.691 22.609 229.638 23.8273 227.288 26.264C224.966 28.672 223.805 31.4813 223.805 34.692C223.805 37.9887 224.951 40.8983 227.245 43.421C229.538 45.9437 232.62 47.205 236.49 47.205C239.012 47.205 241.062 46.302 242.639 44.496C242.954 44.1807 243.226 44.023 243.456 44.023C243.886 44.023 244.301 44.238 244.703 44.668C245.104 45.098 245.305 45.5137 245.305 45.915C245.305 46.173 245.204 46.4023 245.004 46.603C242.796 49.1257 240.03 50.387 236.705 50.387C233.408 50.387 230.513 49.6417 228.019 48.151C225.525 46.6317 223.661 44.711 222.429 42.389C221.196 40.0383 220.58 37.487 220.58 34.735ZM247.793 35.036C247.793 30.65 249.012 26.995 251.448 24.071C253.914 21.147 256.838 19.685 260.22 19.685C263.603 19.685 266.455 21.19 268.777 24.2C271.128 27.1813 272.303 30.7503 272.303 34.907C272.303 39.4937 271.157 43.1917 268.863 46.001C266.599 48.7817 263.718 50.1863 260.22 50.215C256.838 50.215 253.914 48.796 251.448 45.958C249.012 43.12 247.793 39.4793 247.793 35.036ZM250.975 35.079C250.975 38.347 251.878 41.1563 253.684 43.507C255.519 45.8577 257.698 47.033 260.22 47.033C262.714 47.033 264.821 45.8577 266.541 43.507C268.261 41.1277 269.121 38.2897 269.121 34.993C269.121 31.8397 268.247 29.0303 266.498 26.565C264.778 24.0997 262.686 22.867 260.22 22.867C257.698 22.867 255.519 24.114 253.684 26.608C251.878 29.102 250.975 31.9257 250.975 35.079ZM277.591 48.796V21.061C277.591 20.287 278.136 19.9 279.225 19.9C279.655 19.9 280.013 20.0003 280.3 20.201C280.615 20.4017 280.773 20.6883 280.773 21.061V21.405C282.808 20.0863 284.801 19.427 286.75 19.427C291.05 19.427 294.777 20.889 297.93 23.813C301.112 26.7083 302.703 30.349 302.703 34.735C302.703 37.487 302.087 40.0383 300.854 42.389C299.621 44.711 297.758 46.6317 295.264 48.151C292.77 49.6417 289.875 50.387 286.578 50.387C284.371 50.387 282.436 49.8567 280.773 48.796C280.773 49.1687 280.615 49.4697 280.3 49.699C279.985 49.8997 279.612 50 279.182 50C278.121 50 277.591 49.5987 277.591 48.796ZM280.773 44.668C282.35 46.3593 284.356 47.205 286.793 47.205C290.663 47.205 293.745 45.9437 296.038 43.421C298.331 40.8983 299.478 37.9887 299.478 34.692C299.478 31.4813 298.303 28.672 295.952 26.264C293.63 23.8273 290.591 22.609 286.836 22.609C284.801 22.609 282.78 23.3113 280.773 24.716V44.668ZM307.784 48.796V21.061C307.784 20.287 308.328 19.9 309.418 19.9C309.848 19.9 310.206 20.0003 310.493 20.201C310.808 20.4017 310.966 20.6883 310.966 21.061V48.796C310.966 49.1687 310.808 49.4697 310.493 49.699C310.177 49.8997 309.805 50 309.375 50C308.314 50 307.784 49.5987 307.784 48.796ZM317.232 48.796V21.061C317.232 20.287 317.662 19.9 318.522 19.9C319.152 19.9 319.769 20.1723 320.371 20.717L338.646 36.799V21.061C338.646 20.287 339.19 19.9 340.28 19.9C340.71 19.9 341.068 20.0003 341.355 20.201C341.67 20.4017 341.828 20.6883 341.828 21.061V48.796C341.828 49.1687 341.67 49.4697 341.355 49.699C341.039 49.8997 340.667 50 340.237 50C339.176 50 338.646 49.5987 338.646 48.796V40.97L320.414 24.931V48.796C320.414 49.1687 320.256 49.4697 319.941 49.699C319.625 49.8997 319.253 50 318.823 50C317.762 50 317.232 49.5987 317.232 48.796ZM346.935 34.735C346.935 31.8397 347.723 29.2023 349.3 26.823C350.877 24.4437 352.912 22.6233 355.406 21.362C357.9 20.072 360.537 19.427 363.318 19.427C365.898 19.427 368.292 20.3157 370.499 22.093C370.728 22.2937 370.843 22.5517 370.843 22.867C370.843 23.3257 370.657 23.7557 370.284 24.157C369.911 24.5297 369.524 24.716 369.123 24.716C368.836 24.716 368.593 24.6157 368.392 24.415C367.016 23.211 365.296 22.609 363.232 22.609C359.448 22.609 356.323 23.8273 353.858 26.264C351.393 28.7007 350.16 31.51 350.16 34.692C350.16 36.326 350.332 37.8597 350.676 39.293C351.049 40.6977 351.622 42.0163 352.396 43.249C353.199 44.453 354.317 45.4133 355.75 46.13C357.212 46.8467 358.918 47.205 360.867 47.205C363.476 47.205 365.468 46.2733 366.844 44.41C368.249 42.5467 368.98 40.153 369.037 37.229H360.394C359.62 37.229 359.233 36.6843 359.233 35.595C359.233 35.165 359.333 34.8067 359.534 34.52C359.735 34.2047 360.021 34.047 360.394 34.047H370.929C371.388 34.047 371.689 34.219 371.832 34.563C371.975 34.8783 372.047 35.4087 372.047 36.154C372.047 40.4253 371.101 43.8653 369.209 46.474C367.346 49.0827 364.78 50.387 361.512 50.387C359.047 50.387 356.854 49.957 354.933 49.097C353.012 48.237 351.479 47.0617 350.332 45.571C349.214 44.0803 348.368 42.432 347.795 40.626C347.222 38.7913 346.935 36.8277 346.935 34.735Z" fill="black"/>
<defs>
<clipPath id="clip0">
<rect width="197.877" height="66" fill="white"/>
</clipPath>
</defs>
</svg>
