<svg id="Layer_3" data-name="Layer 3" xmlns="http://www.w3.org/2000/svg" viewBox="0 0 142 41.985"><defs><style>.cls-1{fill:#ee832b;}.cls-2{fill:#4a4b4b;}</style></defs><title>logo</title><path class="cls-1" d="M25.653,1.107A18.82,18.82,0,0,0,19.96.149a19.712,19.712,0,0,0-5.728,1L13.8,13.845H26.084Z" transform="translate(0 -0.149)"/><path class="cls-1" d="M28.454,3.52L27.161,13.845h5.172a1.073,1.073,0,0,1,1.293,1L32.2,23.435a1.393,1.393,0,0,1-1.293,1.41H9.085a1.586,1.586,0,0,1-1.4-1.512L6.258,14.946a1.236,1.236,0,0,1,1.4-1.1h5.064L11.43,3.514A20.232,20.232,0,0,0,0,21.826,20.143,20.143,0,0,0,20,42.135,20.07,20.07,0,0,0,39.94,21.851,20.088,20.088,0,0,0,28.454,3.52ZM26.32,33.181a1.011,1.011,0,0,1-1.018.664H22.224a2.156,2.156,0,0,1-2.2,1.279,2.156,2.156,0,0,1-2.2-1.279H14.738a1.234,1.234,0,0,1-1.174-.664l-0.41-1.431a0.974,0.974,0,0,1,.784-0.905h3.878a2.156,2.156,0,0,1,2.2-1.279,2.156,2.156,0,0,1,2.2,1.279H26.1a0.848,0.848,0,0,1,.629.905Z" transform="translate(0 -0.149)"/><path class="cls-1" d="M8.687,17.2L9.481,21.9a0.936,0.936,0,0,0,.834.948H29.57a0.722,0.722,0,0,0,.834-0.693L31.2,17.127a1.335,1.335,0,0,0-.834-1.282H9.521C9.062,15.845,8.687,16.738,8.687,17.2Z" transform="translate(0 -0.149)"/><path class="cls-2" d="M72.137,33.834q0,2.1-2.379,2.1H52.867a2.129,2.129,0,0,1-2.26-2.221,3.151,3.151,0,0,1,.634-1.858L65.436,11.619H53.025q-2.379,0-2.379-2.06,0-2.1,2.379-2.1H69.4a2.2,2.2,0,0,1,1.645.626,2.131,2.131,0,0,1,.615,1.555,3.151,3.151,0,0,1-.674,1.858L56.792,31.773H69.758Q72.137,31.773,72.137,33.834Z" transform="translate(0 -0.149)"/><path class="cls-2" d="M76.756,35.448a2.634,2.634,0,0,1-.694-1.9V9.841a2.565,2.565,0,0,1,.694-1.878A2.467,2.467,0,0,1,78.6,7.257a2.52,2.52,0,0,1,1.883.707,2.565,2.565,0,0,1,.694,1.878V33.55a2.634,2.634,0,0,1-.694,1.9,2.479,2.479,0,0,1-1.883.727A2.428,2.428,0,0,1,76.756,35.448Z" transform="translate(0 -0.149)"/><path class="cls-2" d="M109.962,21.09a1.92,1.92,0,0,1,.556,1.434v8.684a5.283,5.283,0,0,1-.476,2.626,3.477,3.477,0,0,1-1.943,1.251,20.1,20.1,0,0,1-3.687.889,26.677,26.677,0,0,1-4.044.324,15.363,15.363,0,0,1-7.494-1.737,11.625,11.625,0,0,1-4.856-5.028,17.037,17.037,0,0,1-1.686-7.856A16.845,16.845,0,0,1,88.017,13.9a11.883,11.883,0,0,1,4.777-5.049,14.526,14.526,0,0,1,7.3-1.757,13.545,13.545,0,0,1,9.158,3.07,3.157,3.157,0,0,1,.694.889,2.368,2.368,0,0,1,.218,1.05,2.347,2.347,0,0,1-.476,1.494,1.421,1.421,0,0,1-1.15.606,2.124,2.124,0,0,1-.794-0.141,4.451,4.451,0,0,1-.832-0.464,12.591,12.591,0,0,0-3.251-1.757,10.714,10.714,0,0,0-3.41-.5q-4.323,0-6.523,2.6t-2.2,7.735q0,10.5,9.04,10.5a19.631,19.631,0,0,0,5.393-.767V24.261h-4.48a2.134,2.134,0,0,1-1.487-.485,2.03,2.03,0,0,1,0-2.747,2.136,2.136,0,0,1,1.487-.484H108.5A2,2,0,0,1,109.962,21.09Z" transform="translate(0 -0.149)"/><path class="cls-2" d="M121.64,34.52a11.8,11.8,0,0,1-4.62-5.089,17.391,17.391,0,0,1-1.626-7.755A17.453,17.453,0,0,1,117,13.941a11.666,11.666,0,0,1,4.62-5.069,15.019,15.019,0,0,1,14.174,0,11.7,11.7,0,0,1,4.6,5.069A17.453,17.453,0,0,1,142,21.676a17.405,17.405,0,0,1-1.626,7.755,11.812,11.812,0,0,1-4.62,5.089A14.9,14.9,0,0,1,121.64,34.52Zm13.084-5.089q2.161-2.705,2.161-7.755t-2.161-7.735a8.1,8.1,0,0,0-12.054,0q-2.162,2.686-2.161,7.735t2.161,7.755A8.065,8.065,0,0,0,134.724,29.43Z" transform="translate(0 -0.149)"/></svg>