<svg width="277" height="42" viewBox="0 0 277 42" fill="none" xmlns="http://www.w3.org/2000/svg">
<g clip-path="url(#clip0)">
<path d="M25.653 0.958C23.8159 0.34778 21.8956 0.0246458 19.96 0C18.0117 0.0483452 16.0814 0.385344 14.232 1L13.8 13.696H26.084L25.653 0.958Z" fill="#EE832B"/>
<path d="M28.454 3.37101L27.161 13.696H32.333C32.4851 13.664 32.6424 13.6654 32.7939 13.7001C32.9454 13.7348 33.0876 13.8021 33.2106 13.8972C33.3336 13.9923 33.4344 14.113 33.5061 14.2509C33.5779 14.3888 33.6187 14.5407 33.626 14.696L32.2 23.286C32.2052 23.6417 32.0742 23.9859 31.8338 24.2481C31.5934 24.5102 31.2618 24.6705 30.907 24.696H9.08499C8.7098 24.652 8.36264 24.4755 8.10598 24.1983C7.84933 23.9212 7.70004 23.5615 7.68499 23.184L6.25799 14.797C6.27469 14.6316 6.32458 14.4713 6.40467 14.3257C6.48476 14.18 6.5934 14.052 6.7241 13.9493C6.8548 13.8466 7.00487 13.7714 7.16533 13.728C7.32579 13.6847 7.49335 13.6741 7.65799 13.697H12.722L11.43 3.36501C7.99034 5.02691 5.09148 7.62865 3.06875 10.8693C1.04601 14.1099 -0.0179331 17.857 -1.36779e-05 21.677C-0.021896 24.3242 0.478235 26.9497 1.47178 29.4034C2.46532 31.8571 3.9328 34.091 5.79028 35.9772C7.64777 37.8633 9.85883 39.3649 12.297 40.3959C14.7353 41.427 17.3528 41.9673 20 41.986C22.6428 41.969 25.2562 41.4303 27.6902 40.4007C30.1242 39.371 32.3309 37.8708 34.1836 35.9862C36.0363 34.1015 37.4986 31.8695 38.4864 29.4182C39.4742 26.9669 39.9682 24.3447 39.94 21.702C39.9739 17.8691 38.9104 14.1065 36.8752 10.8584C34.84 7.61026 31.9179 5.01224 28.454 3.37101V3.37101ZM26.32 33.032C26.2452 33.2381 26.1055 33.4143 25.9219 33.5341C25.7383 33.6538 25.5207 33.7107 25.302 33.696H22.224C22.0404 34.115 21.7283 34.4648 21.3328 34.6947C20.9373 34.9246 20.479 35.0228 20.024 34.975C19.569 35.0228 19.1107 34.9246 18.7152 34.6947C18.3197 34.4648 18.0076 34.115 17.824 33.696H14.738C14.499 33.7112 14.2607 33.6565 14.0522 33.5386C13.8438 33.4207 13.6741 33.2447 13.564 33.032L13.154 31.601C13.1652 31.3844 13.2485 31.1777 13.3905 31.0138C13.5325 30.8499 13.7252 30.738 13.938 30.696H17.816C17.9996 30.277 18.3117 29.9272 18.7072 29.6973C19.1026 29.4674 19.561 29.3692 20.016 29.417C20.471 29.3692 20.9293 29.4674 21.3248 29.6973C21.7203 29.9272 22.0324 30.277 22.216 30.696H26.1C26.2955 30.7472 26.4662 30.8665 26.5816 31.0324C26.6969 31.1983 26.7492 31.4 26.729 31.601L26.32 33.032Z" fill="#EE832B"/>
<path d="M8.68701 17.051L9.48101 21.751C9.47663 21.9846 9.55977 22.2114 9.71409 22.3868C9.86841 22.5622 10.0828 22.6736 10.315 22.699H29.57C29.6714 22.715 29.775 22.7091 29.8739 22.6819C29.9728 22.6547 30.0648 22.6067 30.1437 22.5411C30.2226 22.4755 30.2867 22.3939 30.3316 22.3016C30.3764 22.2093 30.4011 22.1086 30.404 22.006L31.2 16.978C31.2091 16.7046 31.134 16.435 30.9848 16.2057C30.8356 15.9764 30.6196 15.7985 30.366 15.696H9.52101C9.06201 15.696 8.68701 16.589 8.68701 17.051Z" fill="#EE832B"/>
</g>
<path d="M53.336 31.104V10.464C53.336 10.1867 53.496 9.96267 53.816 9.792C54.1573 9.6 54.5307 9.504 54.936 9.504C55.384 9.504 55.6827 9.632 55.832 9.888L63.384 21.056L70.968 9.888C71.1173 9.632 71.384 9.504 71.768 9.504C72.152 9.504 72.5253 9.6 72.888 9.792C73.2507 9.984 73.432 10.208 73.432 10.464V31.104C73.432 31.3813 73.3147 31.6053 73.08 31.776C72.8453 31.9253 72.568 32 72.248 32C71.4587 32 71.064 31.7013 71.064 31.104V13.92L65.24 22.368C64.728 23.1147 64.0987 23.488 63.352 23.488C62.6693 23.488 62.0613 23.1147 61.528 22.368L55.704 13.92V31.104C55.704 31.3813 55.5867 31.6053 55.352 31.776C55.1173 31.9253 54.84 32 54.52 32C53.7307 32 53.336 31.7013 53.336 31.104ZM76.9333 30.816C76.9333 30.7307 76.9546 30.624 76.9973 30.496L79.1733 24.736H77.8613C77.2853 24.736 76.9973 24.3307 76.9973 23.52C76.9973 23.2 77.0719 22.9333 77.2213 22.72C77.3706 22.4853 77.5839 22.368 77.8613 22.368H80.0693L84.5173 10.72C84.6879 10.3787 84.9226 10.112 85.2213 9.92C85.5199 9.70667 85.7866 9.6 86.0213 9.6C86.2559 9.6 86.5226 9.70667 86.8213 9.92C87.1199 10.1333 87.3439 10.4 87.4933 10.72L91.9412 22.368H94.0213C94.2986 22.368 94.5119 22.4853 94.6613 22.72C94.8319 22.9547 94.9173 23.232 94.9173 23.552C94.9173 24.3413 94.6186 24.736 94.0213 24.736H92.8693L95.0773 30.496C95.1199 30.624 95.1413 30.7307 95.1413 30.816C95.1413 31.136 94.9813 31.4133 94.6613 31.648C94.3413 31.8827 94.0213 32 93.7013 32C93.3599 32 93.1039 31.84 92.9333 31.52L90.3413 24.736H81.7333L79.1413 31.52C78.9706 31.84 78.7146 32 78.3733 32C78.0532 32 77.7333 31.8827 77.4133 31.648C77.0933 31.4133 76.9333 31.136 76.9333 30.816ZM82.6293 22.368H89.4133L86.0213 13.44L82.6293 22.368ZM97.6908 20.64C97.6908 18.4853 98.2774 16.5227 99.4508 14.752C100.624 12.9813 102.139 11.6267 103.995 10.688C105.851 9.728 107.813 9.248 109.883 9.248C111.803 9.248 113.584 9.90933 115.227 11.232C115.397 11.3813 115.483 11.5733 115.483 11.808C115.483 12.1493 115.344 12.4693 115.067 12.768C114.789 13.0453 114.501 13.184 114.203 13.184C113.989 13.184 113.808 13.1093 113.659 12.96C112.635 12.064 111.355 11.616 109.819 11.616C107.003 11.616 104.677 12.5227 102.843 14.336C101.008 16.1493 100.091 18.24 100.091 20.608C100.091 21.824 100.219 22.9653 100.475 24.032C100.752 25.0773 101.179 26.0587 101.755 26.976C102.352 27.872 103.184 28.5867 104.251 29.12C105.339 29.6533 106.608 29.92 108.059 29.92C110 29.92 111.483 29.2267 112.507 27.84C113.552 26.4533 114.096 24.672 114.139 22.496H107.707C107.131 22.496 106.843 22.0907 106.843 21.28C106.843 20.96 106.917 20.6933 107.067 20.48C107.216 20.2453 107.429 20.128 107.707 20.128H115.547C115.888 20.128 116.112 20.256 116.219 20.512C116.325 20.7467 116.379 21.1413 116.379 21.696C116.379 24.8747 115.675 27.4347 114.267 29.376C112.88 31.3173 110.971 32.288 108.539 32.288C106.704 32.288 105.072 31.968 103.643 31.328C102.213 30.688 101.072 29.8133 100.219 28.704C99.3868 27.5947 98.7574 26.368 98.3307 25.024C97.9041 23.6587 97.6908 22.1973 97.6908 20.64ZM120.055 30.368V11.2C120.055 10.1547 120.332 9.632 120.887 9.632H137.335C137.612 9.632 137.825 9.74933 137.975 9.984C138.145 10.2187 138.231 10.496 138.231 10.816C138.231 11.6053 137.932 12 137.335 12H122.423V18.272H134.455C134.732 18.272 134.945 18.3893 135.095 18.624C135.265 18.8587 135.351 19.136 135.351 19.456C135.351 20.2453 135.052 20.64 134.455 20.64H122.423V29.632H137.335C137.612 29.632 137.825 29.7493 137.975 29.984C138.145 30.2187 138.231 30.496 138.231 30.816C138.231 31.6053 137.932 32 137.335 32H120.887C120.524 32 120.289 31.872 120.183 31.616C120.097 31.36 120.055 30.944 120.055 30.368ZM141.555 31.136V10.496C141.555 9.89867 141.949 9.6 142.739 9.6C143.485 9.6 143.859 10.0587 143.859 10.976C146.056 10.0373 148.179 9.568 150.227 9.568C153.128 9.568 155.261 10.2613 156.627 11.648C157.992 13.0347 158.675 14.784 158.675 16.896C158.675 19.8827 157.128 21.8667 154.035 22.848L159.379 30.56C159.507 30.7947 159.571 30.9973 159.571 31.168C159.571 31.424 159.464 31.6267 159.251 31.776C159.059 31.9253 158.803 32 158.483 32C157.821 32 157.299 31.7333 156.915 31.2L151.603 23.392C150.536 23.5413 149.267 23.616 147.795 23.616C147.368 23.616 146.717 23.584 145.843 23.52C144.989 23.456 144.349 23.424 143.923 23.424V31.136C143.923 31.4133 143.805 31.6267 143.571 31.776C143.357 31.9253 143.091 32 142.771 32C141.96 32 141.555 31.712 141.555 31.136ZM143.923 20.672C144.797 20.9493 146.557 21.088 149.203 21.088C151.336 21.088 153.053 20.7147 154.355 19.968C155.656 19.2 156.307 18.0587 156.307 16.544C156.307 15.2427 155.784 14.1547 154.739 13.28C153.693 12.384 152.083 11.936 149.907 11.936C148.029 11.936 146.035 12.5013 143.923 13.632V20.672ZM162.315 20.64C162.315 17.376 163.488 14.6667 165.835 12.512C168.203 10.336 170.987 9.248 174.187 9.248C176.107 9.248 177.888 9.90933 179.531 11.232C179.702 11.3813 179.787 11.5733 179.787 11.808C179.787 12.1493 179.648 12.4693 179.371 12.768C179.094 13.0453 178.806 13.184 178.507 13.184C178.294 13.184 178.112 13.1093 177.963 12.96C176.939 12.064 175.659 11.616 174.123 11.616C171.328 11.616 169.056 12.5227 167.307 14.336C165.579 16.128 164.715 18.2187 164.715 20.608C164.715 23.0613 165.568 25.2267 167.275 27.104C168.982 28.9813 171.275 29.92 174.155 29.92C176.032 29.92 177.558 29.248 178.731 27.904C178.966 27.6693 179.168 27.552 179.339 27.552C179.659 27.552 179.968 27.712 180.267 28.032C180.566 28.352 180.715 28.6613 180.715 28.96C180.715 29.152 180.64 29.3227 180.491 29.472C178.848 31.3493 176.79 32.288 174.315 32.288C171.862 32.288 169.707 31.7333 167.851 30.624C165.995 29.4933 164.608 28.064 163.691 26.336C162.774 24.5867 162.315 22.688 162.315 20.64ZM182.567 20.864C182.567 17.6 183.474 14.88 185.287 12.704C187.122 10.528 189.298 9.44 191.815 9.44C194.333 9.44 196.455 10.56 198.183 12.8C199.933 15.0187 200.807 17.6747 200.807 20.768C200.807 24.1813 199.954 26.9333 198.247 29.024C196.562 31.0933 194.418 32.1387 191.815 32.16C189.298 32.16 187.122 31.104 185.287 28.992C183.474 26.88 182.567 24.1707 182.567 20.864ZM184.935 20.896C184.935 23.328 185.607 25.4187 186.951 27.168C188.317 28.9173 189.938 29.792 191.815 29.792C193.671 29.792 195.239 28.9173 196.519 27.168C197.799 25.3973 198.439 23.2853 198.439 20.832C198.439 18.4853 197.789 16.3947 196.487 14.56C195.207 12.7253 193.65 11.808 191.815 11.808C189.938 11.808 188.317 12.736 186.951 14.592C185.607 16.448 184.935 18.5493 184.935 20.896ZM204.742 31.104V10.464C204.742 9.888 205.148 9.6 205.958 9.6C206.278 9.6 206.545 9.67467 206.758 9.824C206.993 9.97333 207.11 10.1867 207.11 10.464V10.72C208.625 9.73867 210.108 9.248 211.558 9.248C214.758 9.248 217.532 10.336 219.878 12.512C222.246 14.6667 223.43 17.376 223.43 20.64C223.43 22.688 222.972 24.5867 222.054 26.336C221.137 28.064 219.75 29.4933 217.894 30.624C216.038 31.7333 213.884 32.288 211.43 32.288C209.788 32.288 208.348 31.8933 207.11 31.104C207.11 31.3813 206.993 31.6053 206.758 31.776C206.524 31.9253 206.246 32 205.926 32C205.137 32 204.742 31.7013 204.742 31.104ZM207.11 28.032C208.284 29.2907 209.777 29.92 211.59 29.92C214.47 29.92 216.764 28.9813 218.47 27.104C220.177 25.2267 221.03 23.0613 221.03 20.608C221.03 18.2187 220.156 16.128 218.406 14.336C216.678 12.5227 214.417 11.616 211.622 11.616C210.108 11.616 208.604 12.1387 207.11 13.184V28.032ZM227.211 31.104V10.464C227.211 9.888 227.616 9.6 228.427 9.6C228.747 9.6 229.014 9.67467 229.227 9.824C229.462 9.97333 229.579 10.1867 229.579 10.464V31.104C229.579 31.3813 229.462 31.6053 229.227 31.776C228.992 31.9253 228.715 32 228.395 32C227.606 32 227.211 31.7013 227.211 31.104ZM234.242 31.104V10.464C234.242 9.888 234.562 9.6 235.202 9.6C235.672 9.6 236.13 9.80267 236.578 10.208L250.178 22.176V10.464C250.178 9.888 250.584 9.6 251.394 9.6C251.714 9.6 251.981 9.67467 252.194 9.824C252.429 9.97333 252.546 10.1867 252.546 10.464V31.104C252.546 31.3813 252.429 31.6053 252.194 31.776C251.96 31.9253 251.682 32 251.362 32C250.573 32 250.178 31.7013 250.178 31.104V25.28L236.61 13.344V31.104C236.61 31.3813 236.493 31.6053 236.258 31.776C236.024 31.9253 235.746 32 235.426 32C234.637 32 234.242 31.7013 234.242 31.104ZM256.347 20.64C256.347 18.4853 256.934 16.5227 258.107 14.752C259.28 12.9813 260.795 11.6267 262.651 10.688C264.507 9.728 266.47 9.248 268.539 9.248C270.459 9.248 272.24 9.90933 273.883 11.232C274.054 11.3813 274.139 11.5733 274.139 11.808C274.139 12.1493 274 12.4693 273.723 12.768C273.446 13.0453 273.158 13.184 272.859 13.184C272.646 13.184 272.464 13.1093 272.315 12.96C271.291 12.064 270.011 11.616 268.475 11.616C265.659 11.616 263.334 12.5227 261.499 14.336C259.664 16.1493 258.747 18.24 258.747 20.608C258.747 21.824 258.875 22.9653 259.131 24.032C259.408 25.0773 259.835 26.0587 260.411 26.976C261.008 27.872 261.84 28.5867 262.907 29.12C263.995 29.6533 265.264 29.92 266.715 29.92C268.656 29.92 270.139 29.2267 271.163 27.84C272.208 26.4533 272.752 24.672 272.795 22.496H266.363C265.787 22.496 265.499 22.0907 265.499 21.28C265.499 20.96 265.574 20.6933 265.723 20.48C265.872 20.2453 266.086 20.128 266.363 20.128H274.203C274.544 20.128 274.768 20.256 274.875 20.512C274.982 20.7467 275.035 21.1413 275.035 21.696C275.035 24.8747 274.331 27.4347 272.923 29.376C271.536 31.3173 269.627 32.288 267.195 32.288C265.36 32.288 263.728 31.968 262.299 31.328C260.87 30.688 259.728 29.8133 258.875 28.704C258.043 27.5947 257.414 26.368 256.987 25.024C256.56 23.6587 256.347 22.1973 256.347 20.64Z" fill="black"/>
<defs>
<clipPath id="clip0">
<rect width="142" height="41.985" fill="white"/>
</clipPath>
</defs>
</svg>
